# xmcd CD database file
#
# Track frame offsets:
#	150
#	13153
#	28327
#	41872
#	60445
#	80783
#	93461
#	110533
#	126277
#	145101
#	155292
#	170626
#	180743
#	191693
#	210419
#
# Disc length: 3060 seconds
#
# Revision: 1
# Processed by: cddbd v1.5.1PL2 Copyright (c) Steve Scherf et al.
# Submitted via: CDex 1.51
#
DISCID=d50bf20f
DTITLE=Texas Lightning - Meanwhile, Back At The Ranch...
DYEAR=2006
DGENRE=Country
TTITLE0=Bad Case Of Loving You
TTITLE1=Like A Virgin
TTITLE2=No No Never
TTITLE3=Kiss
TTITLE4=Over The Mountains
TTITLE5=C'est la vie
TTITLE6=Highway To Hell
TTITLE7=Dancing Queen
TTITLE8=Man In The Mirror
TTITLE9=Norwegian Wood
TTITLE10=Smoke, Smoke, Smoke (That Cigarette)
TTITLE11=Walking After Midnight
TTITLE12=Raindrops Keep Falling On My Head
TTITLE13=Walk On The Wild Side
TTITLE14=Blue Bayou
EXTD=German Song 2006 for the Eurovision Song Contest YEAR: 2006
EXTT0=
EXTT1=
EXTT2=
EXTT3=
EXTT4=
EXTT5=
EXTT6=
EXTT7=
EXTT8=
EXTT9=
EXTT10=
EXTT11=
EXTT12=
EXTT13=
EXTT14=
PLAYORDER=
